<?xml version="1.0" encoding="UTF-8" standalone="no" ?>
<!DOCTYPE svg PUBLIC "-//W3C//DTD SVG 1.1//EN" "http://www.w3.org/Graphics/SVG/1.1/DTD/svg11.dtd">
<svg xmlns="http://www.w3.org/2000/svg" xmlns:xlink="http://www.w3.org/1999/xlink" version="1.1" width="1080" height="1080" viewBox="0 0 1080 1080" xml:space="preserve">
<desc>Created with Fabric.js 5.2.4</desc>
<defs>
</defs>
<rect x="0" y="0" width="100%" height="100%" fill="transparent"></rect>
<g transform="matrix(1 0 0 1 540 540)" id="7d050ea9-ed53-44ca-b87e-a1239a92e008"  >
<rect style="stroke: none; stroke-width: 1; stroke-dasharray: none; stroke-linecap: butt; stroke-dashoffset: 0; stroke-linejoin: miter; stroke-miterlimit: 4; fill: rgb(255,255,255); fill-rule: nonzero; opacity: 1; visibility: hidden;" vector-effect="non-scaling-stroke"  x="-540" y="-540" rx="0" ry="0" width="1080" height="1080" />
</g>
<g transform="matrix(1 0 0 1 540 540)" id="ac2e92f6-a29f-4a02-8511-2b2464f5b393"  >
</g>
<g transform="matrix(2.68 0 0 2.68 522.97 612.79)"  >
<g style="" vector-effect="non-scaling-stroke"   >
		<g transform="matrix(1 0 0 1 13.38 -25.28)"  >
<path style="stroke: none; stroke-width: 1; stroke-dasharray: none; stroke-linecap: butt; stroke-dashoffset: 0; stroke-linejoin: miter; stroke-miterlimit: 4; fill: rgb(0,0,0); fill-rule: nonzero; opacity: 1;" vector-effect="non-scaling-stroke"  transform=" translate(-196.66, -196.34)" d="M 253.53 114.43 C 233.76188768772244 114.39396772203742 214.3561137564532 119.73453072948503 197.39 129.88 C 205.57920540904507 134.8899706315414 211.40171698367882 142.99101305148076 213.54 152.34999999999997 L 213.26 152.35 C 213.8820490254839 165.5560249013168 204.4059170077213 177.088991775648 191.32999999999998 179.04 C 191.93009990394458 177.36719430469634 193.17666143191101 176.0053438492879 194.79 175.26 C 193.01795031572746 174.2766979352764 190.89894822977598 174.13764730772658 189.01359749155804 174.8809478041082 C 187.1282467533401 175.6242483004898 185.67424985125285 177.17195561326227 185.04999999999998 179.1 C 181.29860307488727 178.71331113816711 177.68419841465476 177.47887397417094 174.48 175.48999999999998 C 175.85797779095785 174.13690023587608 177.75478827117252 173.44748258056728 179.67999999999998 173.6 C 178.6781819379 171.96204563798696 177.02885452600836 170.82566077580856 175.14149017825972 170.472971478502 C 173.25412583051104 170.12028218119542 171.30572138347586 170.58436361519054 169.77999999999997 171.75 C 167.59999999999997 169.58 165.14 166.62 164.14999999999998 163.65 C 167.2139446669407 162.73807801831055 170.4970120431744 164.10393429315585 172.01 166.92000000000002 C 174.87 161.46 168.79 155.00000000000003 163.17999999999998 157.81 C 162.9564447278107 155.99647191563085 163.2584135694189 154.15689161617854 164.04999999999998 152.51 C 165.12372640596772 150.76071680308755 165.3655006012345 148.6250447448976 164.70999999999998 146.67999999999998 L 165.08999999999997 145.92 L 166.81999999999996 150.92 C 168.52999999999997 147.41 171.36999999999998 143.35 168.57999999999996 139.58999999999997 L 169.65999999999997 137.79999999999998 L 173.91999999999996 144.27999999999997 C 174.69999999999996 140.49999999999997 176.44999999999996 135.91999999999996 172.91999999999996 132.96999999999997 C 173.09999999999997 132.70999999999998 173.27999999999997 132.43999999999997 173.45999999999995 132.18999999999997 L 176.87999999999994 138.18999999999997 C 177.87999999999994 134.72999999999996 179.73999999999995 130.64999999999998 177.10999999999993 127.45999999999997 L 177.61999999999992 126.83999999999996 L 180.35999999999993 132.51999999999995 C 181.46999999999994 129.34999999999997 183.49999999999991 125.65999999999995 181.62999999999994 122.40999999999995 C 181.81999999999994 122.21999999999996 182.00999999999993 122.04999999999995 182.18999999999994 121.85999999999996 L 184.36999999999995 127.26999999999995 C 185.59999999999994 124.37999999999995 187.73999999999995 121.00999999999995 186.51999999999995 117.81999999999995 L 187.16999999999996 117.28999999999995 L 188.87999999999997 122.47999999999995 C 190.19999999999996 119.85999999999994 192.42999999999998 116.79999999999995 191.76999999999995 113.73999999999995 C 192.01999999999995 113.53999999999995 192.27999999999994 113.35999999999996 192.54999999999995 113.17999999999995 L 193.84999999999997 118.17999999999995 C 195.23999999999995 115.80999999999995 197.53999999999996 113.00999999999995 197.33999999999997 110.17999999999995 L 198.33999999999997 109.61999999999995 L 199.25999999999996 114.47999999999995 C 200.74999999999997 112.27999999999994 203.13999999999996 109.72999999999995 203.25999999999996 106.95999999999995 L 204.81999999999996 106.16999999999994 L 205.81999999999996 110.98999999999995 C 207.19999999999996 108.86999999999995 209.41999999999996 106.39999999999995 209.65999999999997 103.79999999999995 L 211.42999999999998 102.92999999999995 L 212.54999999999998 107.48999999999995 C 213.80999999999997 105.40999999999995 215.83999999999997 102.99999999999996 216.11999999999998 100.48999999999995 C 217.11999999999998 99.96999999999996 218.00999999999996 99.41999999999996 218.92 98.85999999999996 L 220.51999999999998 102.85999999999996 C 221.43999999999997 100.71999999999996 222.98 98.25999999999996 223.1 95.85999999999996 C 223.90085803305868 95.20559492356114 224.6653326075563 94.50788668744758 225.39 93.76999999999995 L 227.94 97.94999999999996 C 228.6 95.23999999999997 230.01 91.82999999999996 228.94 89.08999999999996 C 229.28 88.48999999999997 229.6 87.86999999999996 229.89 87.21999999999996 L 235.05999999999997 91.21999999999996 C 234.62999999999997 87.85999999999996 234.81999999999996 83.60999999999996 231.62999999999997 81.52999999999996 L 231.68999999999997 81.13999999999996 L 238.29999999999998 80.49999999999996 C 236.46999999999997 78.98999999999995 234.48999999999998 76.77999999999996 232.18999999999997 76.00999999999996 C 232.18999999999997 75.22999999999996 232.18999999999997 74.44999999999996 232.18999999999997 73.66999999999996 L 236.71999999999997 73.07999999999996 C 235.1607778242885 71.75271614055477 233.52820440326937 70.51409704199015 231.82999999999998 69.36999999999995 Q 231.61999999999998 67.81999999999996 231.32 66.27999999999996 L 234.26999999999998 65.80999999999996 C 235.48999999999998 69.20999999999997 236.17999999999998 66.09999999999997 236.2 64.01999999999995 C 236.28893144074362 61.40889919886493 235.67413547742552 58.82192067906006 234.42 56.52999999999995 C 233.13611264665207 54.504199818424496 231.480286460333 52.73979486578942 229.54 51.32999999999995 C 229.04999999999998 50.92999999999995 224.32999999999998 46.809999999999945 224.72 46.42999999999995 C 225.27 45.86999999999995 230.01 49.15999999999995 230.72 49.51999999999995 C 233.13730459062674 50.85666735569217 235.73369926690998 51.839997116359754 238.43 52.439999999999955 C 240.43592857816924 52.850020451627024 242.50407142183076 52.850020451627024 244.51000000000002 52.439999999999955 C 245.31000000000003 52.259999999999955 248.44000000000003 51.55999999999995 247.46 50.51999999999995 C 247.14000000000001 50.17999999999995 245 50.229999999999954 244.52 50.12999999999995 C 243.33147988462466 49.869945613320795 242.1647092459348 49.5189114670101 241.03 49.079999999999956 C 238.571895987827 48.164869213103046 236.22394591000625 46.97747731660513 234.03 45.539999999999964 C 231.9069634978521 44.041849843516765 229.7000309567308 42.66627313104783 227.41999999999996 41.41999999999995 C 226.95 41.17999999999996 222.01999999999998 39.19999999999996 222.08999999999997 38.87999999999996 C 222.27999999999997 37.87999999999996 229.92999999999998 41.35999999999996 230.72999999999996 41.68999999999996 C 234.09284837211746 43.17237814566141 237.761960414945 43.827331790689506 241.42999999999995 43.59999999999996 C 244.95999999999995 43.31999999999996 248.95999999999995 42.20999999999996 251.50999999999996 39.59999999999996 C 252.08999999999997 39.009999999999955 253.61999999999998 37.439999999999955 253.57999999999996 36.51999999999996 C 253.50999999999996 34.99999999999996 252.57999999999996 35.93999999999996 251.67999999999995 36.40999999999996 C 246.400488621991 39.13121455856687 240.2472831590197 39.61063829997002 234.60999999999996 37.73999999999995 C 230.76999999999995 36.52999999999996 227.17999999999995 34.73999999999996 223.25999999999996 33.73999999999996 Q 221.25999999999996 33.22999999999996 219.25999999999996 32.83999999999996 C 218.08999999999997 32.609999999999964 216.83999999999997 32.83999999999996 217.52999999999997 31.619999999999962 C 218.21999999999997 30.399999999999963 220.97999999999996 29.489999999999963 222.21999999999997 28.92999999999996 C 224.29999999999998 27.97999999999996 226.43999999999997 27.119999999999962 228.41999999999996 25.97999999999996 C 229.41999999999996 25.42999999999996 231.78999999999996 24.15999999999996 231.60999999999996 22.72999999999996 C 231.35999999999996 20.849999999999962 229.22999999999996 23.06999999999996 228.40999999999997 23.53999999999996 C 220 28.6 210.12 30.43 201 33.46 C 197.42 34.660000000000004 195 37.63 191.8 39.46 C 189.86738768467052 40.59575818198446 187.79261454620143 41.47005480435392 185.63000000000002 42.06 C 183.96000000000004 42.510000000000005 181.84000000000003 42.400000000000006 180.28000000000003 43.06 C 176.73000000000002 44.620000000000005 179.79000000000002 49.06 181.38000000000002 50.84 C 181.90000000000003 51.440000000000005 184.21000000000004 53.99 184.86 53.25 C 185.21 52.85 183.95000000000002 49.2 184.96 49.07 C 185.48000000000002 49 189.38 53.38 190.19 51.81 C 190.37 51.440000000000005 187.82 48.61 189.04 48.17 C 189.54999999999998 47.99 193.22 51.82 193.9 50.480000000000004 C 194.04 50.21 192.8 48.540000000000006 192.9 47.93000000000001 C 193.04 46.64000000000001 193.28 46.93000000000001 194.35 46.99000000000001 C 195.22 47.06000000000001 201.35 48.44000000000001 201.2 49.35000000000001 C 201.13 49.69000000000001 198.42 50.23000000000001 197.98999999999998 50.35000000000001 C 196.58085126066103 50.86397616360573 195.21626951363942 51.49275402742941 193.90999999999997 52.23000000000001 C 192.98660738912676 52.86716235652681 191.92961054039995 53.28448797317623 190.81999999999996 53.45000000000001 C 190.22999999999996 53.45000000000001 188.15999999999997 52.56000000000001 187.91999999999996 52.73000000000001 C 186.64999999999995 53.58000000000001 190.91999999999996 54.82000000000001 188.13999999999996 55.26000000000001 C 186.90999999999997 55.460000000000015 183.35999999999996 52.98000000000001 182.84999999999997 53.320000000000014 C 182.33999999999997 53.66000000000002 183.70999999999998 56.48000000000002 183.94999999999996 56.850000000000016 C 184.87011452155068 58.33208568309069 186.40941321271322 59.32032279030483 188.13999999999996 59.54000000000001 C 191.66999999999996 59.91000000000001 193.20999999999995 56.430000000000014 195.95999999999995 54.94000000000001 C 201.23999999999995 52.08000000000001 207.72999999999996 53.88000000000001 213.30999999999995 54.84000000000001 C 214.00999999999993 56.07000000000001 214.64999999999995 57.33000000000001 215.23999999999995 58.62000000000001 C 214.04854671023398 58.85952172692762 212.87815106402712 59.19392048298671 211.73999999999992 59.62000000000001 L 211.73999999999995 59.83000000000001 C 212.85999999999996 60.22000000000001 214.94999999999996 61.20000000000001 216.08999999999995 60.640000000000015 C 216.22999999999993 61.000000000000014 216.36999999999995 61.350000000000016 216.49999999999994 61.70000000000002 C 215.40999999999994 62.030000000000015 214.30999999999995 62.27000000000002 213.23999999999995 62.640000000000015 L 213.23999999999995 62.860000000000014 C 214.18999999999994 63.19000000000001 216.23999999999995 64.15000000000002 217.23999999999995 63.860000000000014 C 217.34999999999997 64.22000000000001 217.44999999999996 64.57000000000001 217.55999999999995 64.92000000000002 C 216.61999999999995 65.20000000000002 215.66999999999996 65.39000000000001 214.74999999999994 65.72000000000001 L 214.74999999999994 66 C 215.83999999999995 66.39 216.96999999999994 66.67 218.08999999999995 67 C 218.19999999999996 67.46 218.31999999999994 67.92 218.40999999999994 68.37 C 217.57074860399078 68.56026777252487 216.74279016380038 68.79730426145035 215.92999999999995 69.08000000000001 L 215.92999999999995 69.3 C 216.84999999999994 69.61999999999999 217.77999999999994 69.82 218.70999999999995 70.09 C 218.79999999999995 70.63000000000001 218.86999999999995 71.17 218.92999999999995 71.71000000000001 C 218.08729878819716 71.90367165195279 217.25601615693105 72.14404253328274 216.4399999999999 72.43 L 216.43999999999994 72.64 C 217.3033742924333 72.95836263121525 218.18912689887776 73.21238979381819 219.08999999999995 73.4 C 219.08999999999995 73.92 219.14999999999995 74.4 219.14999999999995 74.94000000000001 C 218.14999999999995 75.23000000000002 217.23999999999995 75.42000000000002 216.29999999999995 75.75000000000001 L 216.29999999999995 75.97000000000001 C 217.21999999999994 76.29 218.15999999999997 76.49000000000001 219.08999999999995 76.76000000000002 C 219.08999999999995 77.18000000000002 219.01999999999995 77.59000000000002 218.96999999999994 77.99000000000002 C 217.8061004283528 78.24824660969605 216.66032481581038 78.58229197778422 215.53999999999994 78.99000000000002 L 215.53999999999994 79.20000000000002 C 216.53999999999994 79.56000000000002 217.59999999999994 79.74000000000002 218.60999999999993 80.08000000000001 C 218.55687777868124 80.42116551513558 218.46977792123724 80.75616496684329 218.34999999999994 81.08000000000001 C 217.34999999999994 80.66000000000001 215.15999999999994 81.63000000000001 214.18999999999994 81.97000000000001 L 214.18999999999994 82.19000000000001 C 215.24999999999994 82.56000000000002 216.34999999999994 82.79 217.41999999999993 83.12000000000002 C 217.23841491943753 83.42227776176432 217.03802029260152 83.71284997067653 216.81999999999994 83.99000000000002 C 215.62999999999994 83.27000000000002 213.44999999999993 84.29000000000002 212.28999999999994 84.70000000000002 L 212.28999999999994 84.91000000000001 C 213.22999999999993 85.25000000000001 214.19999999999993 85.43 215.14999999999995 85.73 C 214.90999999999994 85.94 214.65999999999994 86.14 214.39999999999995 86.35000000000001 C 213.20999999999995 85.62 211.01999999999995 86.64000000000001 209.85999999999996 87.05000000000001 L 209.85999999999996 87.26 C 210.59299896575826 87.52125835618206 211.34100882690424 87.73831478910388 212.09999999999997 87.91000000000001 L 211.53999999999996 88.26 C 210.33999999999997 87.48 208.12999999999997 88.52000000000001 206.94999999999996 88.93 L 206.94999999999996 89.15 C 207.59999999999997 89.38000000000001 208.24999999999997 89.56 208.94999999999996 89.73 L 208.60999999999996 89.9 C 207.41999999999996 89.17 205.22999999999996 90.19000000000001 204.06999999999996 90.60000000000001 L 204.06999999999996 90.82000000000001 C 204.63999999999996 91.02000000000001 205.20999999999995 91.18 205.76999999999995 91.33000000000001 L 205.49999999999994 91.47000000000001 C 204.35999999999996 90.90000000000002 202.20999999999995 91.89000000000001 201.12999999999994 92.27000000000001 L 201.12999999999994 92.48 C 201.58999999999995 92.65 202.05999999999995 92.79 202.51999999999992 92.92 L 202.29999999999993 93.02 C 201.29999999999993 92.64 199.12999999999994 93.61 198.19999999999993 93.94 L 198.19999999999993 94.14999999999999 C 198.55999999999995 94.27999999999999 198.92999999999992 94.38999999999999 199.28999999999994 94.49999999999999 L 199.05999999999995 94.60999999999999 C 197.99999999999994 94.47999999999999 196.24999999999994 95.25999999999999 195.26999999999995 95.60999999999999 L 195.26999999999995 95.82999999999998 L 196.13999999999996 96.10999999999999 C 194.89885942849352 96.58843288745825 193.62574717573523 96.97938861862025 192.32999999999996 97.27999999999999 L 192.32999999999996 97.49999999999999 L 193.10999999999996 97.74999999999999 C 191.90739980832188 98.24853176831651 190.66675645959637 98.64981802666439 189.39999999999995 98.94999999999999 L 189.39999999999995 99.16999999999999 L 190.19999999999996 99.41999999999999 C 188.99772581568038 99.93789098953704 187.74871645174105 100.33971705836471 186.46999999999997 100.61999999999999 L 186.46999999999997 100.82999999999998 C 186.77999999999997 100.94999999999999 187.09999999999997 101.03999999999998 187.46999999999997 101.13999999999999 L 187.24999999999997 101.27999999999999 C 185.9847485259894 101.43412165986776 184.74854405571395 101.77096211498369 183.57999999999998 102.27999999999999 L 183.57999999999998 102.48999999999998 C 183.99999999999997 102.63999999999999 184.42 102.76999999999998 184.83999999999997 102.88999999999999 L 184.68999999999997 103.00999999999999 C 183.68999999999997 102.66 181.53999999999996 103.63 180.68999999999997 103.94 L 180.68999999999997 104.16 C 181.26999999999998 104.36 181.84999999999997 104.53 182.42999999999998 104.67999999999999 L 182.18999999999997 104.86 C 181.02999999999997 104.22 178.86999999999998 105.22 177.74999999999997 105.61 L 177.74999999999997 105.83 C 178.53999999999996 106.1 179.31999999999996 106.32 180.09999999999997 106.51 L 179.69999999999996 106.83 C 178.43999999999997 105.71 176.15999999999997 106.83 174.81999999999996 107.28 L 174.81999999999996 107.5 C 175.81999999999996 107.85 176.81999999999996 108.03 177.81999999999996 108.36 L 177.12999999999997 108.97 L 177.12999999999997 108.97 C 175.84999999999997 107.24 173.48999999999998 108.39 171.84999999999997 108.97 L 171.84999999999997 109.17999999999999 C 172.84999999999997 109.52 174.84999999999997 110.47999999999999 175.84999999999997 110.17999999999999 L 174.72999999999996 111.17999999999999 C 173.46999999999997 110.02 171.17999999999995 111.17999999999999 169.82999999999996 111.61 L 169.82999999999996 111.82 C 170.89999999999995 112.19999999999999 172.01999999999995 112.44999999999999 173.10999999999996 112.82 L 172.25999999999996 113.64999999999999 C 171.18999999999997 113.19 169.03999999999996 114.16999999999999 168.03999999999996 114.52 L 168.03999999999996 114.72999999999999 C 168.8712728530284 115.02401369052363 169.71946953895662 115.26778675380223 170.57999999999996 115.46 C 170.28999999999996 115.77 169.98999999999995 116.08 169.69999999999996 116.39999999999999 C 168.52954105384927 116.65820392282252 167.37710991884384 116.99224193296904 166.24999999999997 117.4 L 166.24999999999997 117.61999999999999 C 166.88999999999996 117.83999999999999 167.52999999999997 118.02 168.16999999999996 118.18999999999998 C 167.77999999999997 118.62999999999998 167.39999999999995 119.07999999999998 167.01999999999995 119.53999999999998 C 166.15502945599923 119.72762068128577 165.30322056398973 119.97147185429242 164.46999999999994 120.26999999999998 L 164.46999999999994 120.47999999999998 C 164.93999999999994 120.64999999999998 165.46999999999994 120.78999999999998 165.88999999999993 120.92999999999998 C 165.46999999999994 121.45999999999998 165.04999999999993 122.00999999999998 164.63999999999993 122.54999999999998 C 163.98999999999992 122.70999999999998 163.32999999999993 122.89999999999998 162.63999999999993 123.12999999999998 L 162.63999999999993 123.33999999999997 C 162.99999999999994 123.46999999999997 163.35999999999993 123.57999999999997 163.71999999999994 123.68999999999997 C 163.27999999999994 124.27999999999997 162.84999999999994 124.89999999999996 162.41999999999993 125.50999999999996 Q 161.63999999999993 125.71999999999996 160.85999999999993 125.98999999999997 L 160.85999999999993 126 L 161.72999999999993 126.28 C 161.28999999999994 126.92 160.84999999999994 127.56 160.40999999999994 128.22 C 159.96999999999994 128.35 159.51999999999995 128.49 159.06999999999994 128.65 L 159.06999999999994 128.86 L 159.83999999999995 129.11 C 159.40999999999994 129.77 158.96999999999994 130.43 158.54999999999995 131.11 C 158.12999999999997 131.23000000000002 157.70999999999995 131.36 157.28999999999996 131.51000000000002 L 157.28999999999996 131.72000000000003 L 158.03999999999996 131.96000000000004 C 157.63999999999996 132.61000000000004 157.25999999999996 133.28000000000003 156.86999999999998 133.96000000000004 C 156.40999999999997 134.09000000000003 155.95999999999998 134.23000000000005 155.49999999999997 134.39000000000004 L 155.49999999999997 134.61000000000004 C 155.77999999999997 134.71000000000004 156.04999999999998 134.79000000000005 156.32999999999998 134.87000000000003 L 155.32999999999998 136.77000000000004 L 155.10999999999999 136.83000000000004 C 154.10999999999999 133.83000000000004 153.49999999999997 130.32000000000005 150.24999999999997 128.99000000000004 C 150.33999999999997 128.51000000000005 150.42999999999998 127.99000000000004 150.52999999999997 127.55000000000004 L 156.02999999999997 130.76000000000005 C 155.21999999999997 127.69000000000005 154.84999999999997 123.68000000000005 151.82999999999998 121.94000000000005 C 151.95999999999998 121.45000000000006 152.1 120.94000000000005 152.23 120.48000000000006 L 157.32999999999998 123.91000000000007 C 156.73999999999998 120.91000000000007 156.64 116.91000000000007 153.92 114.99000000000007 C 154.07999999999998 114.53000000000007 154.23 114.08000000000007 154.38 113.63000000000007 L 159.44 116.90000000000006 C 158.82 114.03000000000006 158.64 110.26000000000006 156.2 108.29000000000006 C 156.35999999999999 107.82000000000006 156.51999999999998 107.35000000000007 156.67 106.88000000000007 L 161.60999999999999 109.88000000000007 C 160.92 107.12000000000006 160.60999999999999 103.45000000000007 158.29999999999998 101.53000000000007 C 158.45 100.94000000000007 158.6 100.34000000000007 158.73 99.75000000000007 L 163.60999999999999 101.83000000000007 C 162.60999999999999 99.37000000000008 161.83999999999997 95.95000000000007 159.60999999999999 94.30000000000007 C 159.60999999999999 93.84000000000007 159.67 93.37000000000006 159.67999999999998 92.90000000000006 L 164.95999999999998 94.17000000000006 C 163.45999999999998 91.71000000000006 162.04 88.27000000000005 159.2 87.17000000000006 C 159.1 86.69000000000005 158.97 86.17000000000006 158.83999999999997 85.75000000000006 L 164.40999999999997 85.02000000000005 C 162.13999999999996 83.28000000000006 159.59999999999997 80.57000000000005 156.56999999999996 80.50000000000006 C 155.7637144023989 79.1232961625678 154.85445424348205 77.80954894766224 153.84999999999997 76.57000000000005 L 157.99999999999997 71.49000000000005 C 155.58999999999997 71.74000000000005 152.48999999999998 71.57000000000005 150.30999999999997 72.76000000000005 C 149.81999999999996 72.30000000000005 149.30999999999997 71.85000000000005 148.77999999999997 71.40000000000005 L 151.77999999999997 67.48000000000005 C 149.60999999999999 67.76000000000005 147.10999999999999 67.76000000000005 145.03999999999996 68.54000000000005 C 144.3310791556116 68.06402391908294 143.68875767841394 67.4956871146515 143.12999999999997 66.85000000000005 L 145.56999999999996 63.46000000000005 C 143.74999999999997 63.76000000000005 141.91999999999996 64.04000000000005 140.10999999999996 64.36000000000006 C 138.237440352195 63.30976562064382 136.17983562962272 62.63068815444834 134.04999999999995 62.360000000000056 C 131.53999999999996 61.95000000000006 129.15999999999997 60.88000000000006 126.68999999999996 60.230000000000054 C 131.98999999999995 59.760000000000055 137.28999999999996 60.470000000000056 142.33999999999995 58.34000000000005 C 143.26999999999995 57.95000000000005 150.33999999999995 53.17000000000005 148.17999999999995 52.52000000000005 C 147.73999999999995 52.39000000000005 145.90999999999994 53.52000000000005 145.43999999999994 53.67000000000005 C 144.2882610136638 54.04834632709986 143.1077205596533 54.33261244208821 141.90999999999994 54.52000000000005 C 139.29917306800652 54.971817991026725 136.64630319410793 55.13280124506859 134 55 C 131.40953468521388 54.780039195374336 128.80909292705894 54.6999228896032 126.21000000000002 54.760000000000005 C 125.69 54.76 120.44 55.57 120.33 55.25 C 120 54.32 127.81 53.51 128.6 53.41 C 131.9472664206317 53.08212153924768 135.18949771855873 52.06040999578328 138.12 50.40999999999999 C 141.20213665239245 48.6794738687236 143.7300217393927 46.10997750457109 145.41 43 C 146.10893519185842 41.613725075606816 146.4720438721558 40.08250262189991 146.47 38.53 C 146.47 37.01 146.19 36.25 145.07 37.53 C 143.95 38.81 143.15 40.53 141.87 41.88 C 139.87159803246414 43.90307206755765 137.49255675954657 45.51062424197193 134.87 46.61 C 131.48 48 128 48.3 124.38 48.94 Q 121.56 49.449999999999996 118.8 50.23 C 117.25999999999999 50.66 115.19 51.849999999999994 113.62 51.91 C 112.05000000000001 51.97 113.16000000000001 50.209999999999994 113.82000000000001 49.089999999999996 C 115.07 47 116.68 45 118.07 43 C 119.07 41.57 120.61999999999999 39.58 120.67999999999999 37.76 C 120.67999999999999 37.199999999999996 120.67999999999999 36.1 119.88 36.03 C 119.08 35.96 118.94999999999999 37.29 118.67999999999999 37.85 C 116.74 41.85 113.5 45.38 110.67999999999999 48.75 C 107.38 52.65 103.91999999999999 56.39 100.36999999999999 60.06 C 97.69999999999999 62.830000000000005 97.00999999999999 65.88 95.36999999999999 69.25 C 93.48728476844022 72.98596193736034 90.79941150578959 76.25785848833786 87.49999999999999 78.83 C 83.74999999999999 81.95 87.71999999999998 84.63 90.93999999999998 85.83 C 91.82999999999998 86.16 95.09999999999998 87.28 95.48999999999998 86.27 C 95.66999999999999 85.81 92.64999999999998 83.27 93.48999999999998 82.61 C 94.25897944311471 82.68931311856224 95.01891762773688 82.83996165736399 95.75999999999998 83.06 C 96.35999999999997 83.06 99.41999999999997 83.06 99.37999999999998 82.35000000000001 C 99.37999999999998 81.93 95.73999999999998 80.78000000000002 96.56999999999998 79.78000000000002 C 96.85999999999999 79.43000000000002 101.99999999999997 80.78000000000002 101.92999999999998 79.33000000000001 C 101.92999999999998 79.13000000000001 100.26999999999998 78.33000000000001 100.04999999999998 78.09000000000002 C 99.04999999999998 76.94000000000001 99.44999999999999 76.91000000000001 100.16999999999999 76.25000000000001 C 100.88999999999999 75.59000000000002 107.37999999999998 73.95000000000002 107.63999999999999 74.69000000000001 C 107.74999999999999 75.03000000000002 105.63999999999999 76.85000000000001 105.37999999999998 77.20000000000002 C 104.42146101427855 78.35454449341027 103.55860521520043 79.5852845479093 102.79999999999998 80.88000000000002 C 102.3413376543823 81.88845076397608 101.65706132634256 82.77800999042773 100.79999999999998 83.48000000000002 C 100.30999999999999 83.81000000000002 98.04999999999998 84.06000000000002 97.92999999999998 84.32000000000002 C 97.25999999999998 85.70000000000002 101.58999999999997 84.62000000000002 99.38999999999997 86.41000000000003 C 98.38999999999997 87.19000000000003 94.11999999999998 86.83000000000003 93.84999999999997 87.41000000000003 C 93.48999999999997 88.15000000000002 96.54999999999997 89.92000000000003 96.98999999999997 90.10000000000002 C 98.914705051525 90.95164996895163 101.15417648561534 90.65434083028791 102.78999999999996 89.33000000000003 C 104.06999999999996 88.24000000000002 104.25999999999996 86.96000000000002 104.62999999999997 85.46000000000002 C 105.10269076320513 83.51579398536539 106.08268859669117 81.73178384482918 107.46999999999997 80.29000000000002 C 111.46999999999997 76.18000000000002 117.59999999999997 74.63000000000002 122.82999999999997 72.68000000000002 C 124.43639704946344 73.0804356117016 126.01891351585482 73.571216034823 127.56999999999995 74.15000000000002 C 126.93639093198625 75.15216795905106 126.36207256190868 76.1906157095983 125.84999999999997 77.26000000000002 L 126.00999999999996 77.41000000000003 C 127.00999999999996 76.91000000000003 129.20999999999995 76.11000000000003 129.62999999999997 74.95000000000003 L 130.62999999999997 75.40000000000003 C 130.11999999999998 76.40000000000003 129.49999999999997 77.32000000000004 129.01999999999995 78.33000000000004 L 129.17999999999995 78.48000000000005 C 129.99999999999994 78.08000000000004 132.17999999999995 77.27000000000005 132.64999999999995 76.36000000000004 L 133.64999999999995 76.87000000000005 C 133.17999999999995 77.72000000000004 132.64999999999995 78.52000000000005 132.25999999999996 79.40000000000005 L 132.40999999999997 79.55000000000005 C 133.40999999999997 79.05000000000005 134.40999999999997 78.44000000000005 135.40999999999997 77.87000000000005 L 136.60999999999996 78.62000000000005 C 136.161983142892 79.33995249184882 135.7546775045354 80.08445378163181 135.38999999999996 80.85000000000007 L 135.53999999999996 81.00000000000006 C 136.40999999999997 80.58000000000006 137.20999999999995 80.07000000000005 138.03999999999996 79.59000000000006 C 138.49999999999997 79.92000000000006 138.93999999999997 80.24000000000007 139.36999999999998 80.59000000000006 C 138.909915709496 81.32193351581681 138.49255205432803 82.07986591360186 138.11999999999998 82.86000000000007 L 138.27999999999997 83.01000000000006 C 139.1027663080755 82.60785646144497 139.90084648339834 82.1570580360534 140.66999999999996 81.66000000000005 C 141.05999999999995 82.01000000000006 141.44999999999996 82.36000000000007 141.80999999999995 82.71000000000006 C 141.34999999999994 83.59000000000006 140.80999999999995 84.40000000000006 140.37999999999994 85.30000000000007 L 140.53999999999994 85.45000000000007 C 141.41999999999993 85.02000000000007 142.21999999999994 84.45000000000007 143.06999999999994 84.03000000000007 C 143.34999999999994 84.34000000000007 143.60999999999993 84.65000000000008 143.86999999999995 84.96000000000008 C 143.2020389101952 85.93343142542449 142.5974546657357 86.94886573656083 142.06 88.00000000000003 L 142.21 88.15 C 143.21 87.68 144.06 87.06 145.02 86.58000000000001 C 145.22161142814434 86.87160439620106 145.39887665700377 87.17931007648536 145.55 87.50000000000001 C 144.55 87.95000000000002 143.69 90.16000000000001 143.25 91.08000000000001 L 143.41 91.23000000000002 C 144.41 90.74000000000002 145.35 90.12000000000002 146.34 89.60000000000002 C 146.42284037088825 89.92932964467306 146.4862827608565 90.26323696029547 146.53 90.60000000000002 C 145.19 90.94000000000003 144.37 93.20000000000002 143.85 94.31000000000002 L 144 94.46000000000002 C 144.9 94.03000000000002 145.72 93.46000000000002 146.59 93.01000000000002 C 146.59 93.32000000000002 146.54 93.64000000000001 146.5 94.01000000000002 C 145.15 94.33000000000001 144.33 96.61000000000001 143.81 97.72000000000001 L 143.96 97.87000000000002 C 144.64568732169548 97.52803752696306 145.3132442297872 97.15086787389124 145.96 96.74000000000002 L 145.81 97.38000000000002 C 144.41 97.68000000000002 143.59 99.98000000000002 143.05 101.11000000000003 L 143.20000000000002 101.27000000000002 C 143.82000000000002 100.97000000000003 144.41000000000003 100.64000000000003 144.99 100.27000000000002 L 144.87 100.64000000000003 C 143.52 100.96000000000002 142.70000000000002 103.24000000000002 142.17000000000002 104.35000000000002 L 142.32000000000002 104.50000000000003 C 142.87000000000003 104.24000000000002 143.39000000000001 103.95000000000003 143.89000000000001 103.66000000000003 L 143.8 103.95000000000003 C 142.59 104.35000000000004 141.8 106.58000000000003 141.29000000000002 107.61000000000003 L 141.44000000000003 107.76000000000003 C 141.88000000000002 107.55000000000004 142.31000000000003 107.32000000000004 142.73000000000002 107.08000000000003 L 142.65 107.31000000000003 C 141.65 107.77000000000002 140.83 109.97000000000003 140.41 110.87000000000003 L 140.56 111.02000000000004 C 140.91 110.85000000000004 141.24 110.67000000000004 141.56 110.49000000000004 C 141.53785545739143 110.5714370302844 141.51114658408378 110.65156365020741 141.48 110.73000000000003 C 140.64 111.39000000000003 139.95999999999998 113.18000000000004 139.48 114.12000000000003 L 139.64 114.27000000000004 C 139.92 114.14000000000004 140.17999999999998 113.99000000000004 140.45 113.85000000000004 C 139.9170556511722 115.068680098814 139.2988564519035 116.24827100336456 138.6 117.38000000000004 L 138.75 117.53000000000004 C 139 117.41000000000004 139.24 117.28000000000004 139.48 117.15000000000005 C 138.99013791899162 118.35967733360887 138.40148162073868 119.52695601594003 137.72 120.64000000000004 L 137.87 120.79000000000005 C 138.13 120.67000000000004 138.37 120.53000000000004 138.61 120.40000000000005 C 138.13503245809142 121.6181854237568 137.5422181996467 122.78706777515343 136.84 123.89000000000004 L 136.99 124.05000000000004 L 137.88 123.58000000000004 C 137.8585218762105 123.6656717654686 137.8418293872109 123.75247270826637 137.82999999999998 123.84000000000005 C 137.04855465147008 124.84794236705207 136.41546320556213 125.962587412773 135.95 127.15000000000006 L 136.10999999999999 127.30000000000005 C 136.51 127.11000000000006 136.89999999999998 126.90000000000005 137.27999999999997 126.69000000000005 L 137.27999999999997 126.88000000000005 C 136.33999999999997 127.34000000000005 135.50999999999996 129.56000000000006 135.09999999999997 130.41000000000005 L 135.24999999999997 130.56000000000006 C 135.80999999999997 130.29000000000005 136.33999999999997 130.00000000000006 136.84999999999997 129.70000000000005 C 136.84999999999997 129.79000000000005 136.84999999999997 129.89000000000004 136.84999999999997 129.98000000000005 C 135.57999999999996 130.36000000000004 134.76999999999995 132.60000000000005 134.25999999999996 133.67000000000004 L 134.40999999999997 133.82000000000005 C 135.1458716225253 133.46529390024077 135.86041930297495 133.0679519657851 136.54999999999995 132.63000000000005 L 136.48999999999995 133.15000000000006 C 134.80999999999995 133.25000000000006 133.98999999999995 135.64000000000007 133.37999999999994 136.92000000000007 L 133.52999999999994 137.07000000000008 C 134.52999999999994 136.61000000000007 135.33999999999995 136.00000000000009 136.28999999999994 135.5300000000001 C 136.28999999999994 135.8300000000001 136.28999999999994 136.1400000000001 136.23999999999992 136.45000000000007 L 136.23999999999992 136.45000000000007 C 134.08999999999992 136.14000000000007 133.23999999999992 138.61000000000007 132.51999999999992 140.20000000000007 L 132.66999999999993 140.35000000000008 C 133.58999999999992 139.91000000000008 135.66999999999993 139.14000000000007 136.16999999999993 138.17000000000007 C 136.16999999999993 138.68000000000006 136.16999999999993 139.17000000000007 136.16999999999993 139.70000000000007 C 134.45999999999992 139.7800000000001 133.62999999999994 142.18000000000006 133.00999999999993 143.48000000000008 L 133.16999999999993 143.63000000000008 C 134.16999999999993 143.13000000000008 135.16999999999993 142.52000000000007 136.16999999999993 141.9600000000001 C 136.16999999999993 142.3600000000001 136.16999999999993 142.7600000000001 136.16999999999993 143.16000000000008 C 135.07999999999993 143.5900000000001 134.25999999999993 145.8100000000001 133.80999999999992 146.76000000000008 L 133.95999999999992 146.92000000000007 C 134.7485197778871 146.53017892949964 135.51622408435438 146.09959694891583 136.25999999999993 145.63000000000008 C 136.25999999999993 146.05000000000007 136.25999999999993 146.48000000000008 136.31999999999994 146.91000000000008 C 135.66807406445693 147.91516300661024 135.0866778830312 148.96434921906814 134.57999999999993 150.0500000000001 L 134.73999999999992 150.20000000000007 C 135.33999999999992 149.91000000000008 135.91999999999993 149.58000000000007 136.47999999999993 149.20000000000007 C 136.47999999999993 149.79000000000008 136.57999999999993 150.38000000000008 136.63999999999993 150.97000000000008 C 136.16251896490343 151.71418880220648 135.73491413210212 152.48922256165886 135.35999999999993 153.29000000000008 L 135.50999999999993 153.44000000000008 C 135.95999999999992 153.23000000000008 136.39999999999992 152.9900000000001 136.82999999999993 152.75000000000009 C 136.90999999999994 153.42000000000007 136.99999999999991 154.10000000000008 137.09999999999994 154.75000000000009 C 136.74999999999994 155.3300000000001 136.42999999999995 155.92000000000007 136.09999999999994 156.5500000000001 L 136.24999999999994 156.7000000000001 C 136.59999999999994 156.53000000000011 136.92999999999995 156.3600000000001 137.24999999999994 156.1800000000001 C 137.35999999999996 156.91000000000008 137.49999999999994 157.6500000000001 137.62999999999994 158.38000000000008 C 137.49999999999994 158.60000000000008 137.37999999999994 158.82000000000008 137.26999999999992 159.05000000000007 C 134.92999999999992 158.05000000000007 132.6899999999999 156.88000000000008 130.08999999999992 157.88000000000008 C 129.9099999999999 157.67000000000007 129.73999999999992 157.44000000000008 129.55999999999992 157.23000000000008 L 134.74999999999991 155.51000000000008 C 132.1299999999999 154.19000000000008 129.0699999999999 151.97000000000008 126.00999999999992 152.64000000000007 C 125.80999999999992 152.38000000000008 125.61999999999992 152.12000000000006 125.44999999999992 151.86000000000007 L 130.44999999999993 150.55000000000007 C 128.07999999999993 149.16000000000008 125.27999999999993 146.86000000000007 122.44999999999993 147.07000000000008 L 121.88999999999993 146.07000000000008 L 126.73999999999992 145.14000000000007 C 124.53999999999992 143.65000000000006 121.98999999999992 141.27000000000007 119.21999999999993 141.14000000000007 C 118.94999999999993 140.62000000000006 118.68999999999993 140.14000000000007 118.42999999999992 139.58000000000007 L 123.23999999999992 138.58000000000007 C 121.11999999999992 137.20000000000007 118.64999999999992 134.99000000000007 116.04999999999993 134.75000000000006 L 115.17999999999992 132.98000000000005 L 119.72999999999992 131.85000000000005 C 117.64999999999992 130.60000000000005 115.23999999999992 128.57000000000005 112.72999999999992 128.29000000000005 C 112.20999999999992 127.29000000000005 111.65999999999993 126.40000000000005 111.09999999999992 125.50000000000004 L 115.09999999999992 123.89000000000004 C 112.95999999999992 122.97000000000004 110.48999999999992 121.43000000000005 108.09999999999992 121.32000000000005 C 107.44528113039678 120.52258692158316 106.74757931585346 119.76145766935406 106.0099999999999 119.04000000000003 L 110.18999999999991 116.48000000000005 C 107.46999999999991 115.83000000000004 104.05999999999992 114.41000000000005 101.32999999999991 115.48000000000005 C 100.72999999999992 115.14000000000004 100.10999999999991 114.83000000000004 99.45999999999991 114.54000000000005 L 103.45999999999991 109.37000000000005 C 100.10999999999991 109.79000000000005 95.87999999999991 109.62000000000005 93.79999999999991 112.78000000000004 L 93.3699999999999 112.70000000000005 L 92.7299999999999 106.14000000000004 C 91.2599999999999 107.93000000000005 89.1499999999999 109.83000000000004 88.31999999999991 112.03000000000004 C 87.49999999999991 111.97000000000004 86.67999999999991 111.95000000000005 85.85999999999991 111.95000000000005 L 85.30999999999992 107.74000000000005 C 84.18999999999991 109.20000000000005 83.02999999999992 110.65000000000005 81.93999999999991 112.13000000000005 C 80.93999999999991 112.22000000000006 80.01999999999991 112.34000000000005 79.05999999999992 112.50000000000006 C 79.54999999999991 111.75000000000006 82.48999999999992 104.50000000000006 80.36999999999992 105.67000000000006 C 79.53999999999992 106.13000000000005 78.52999999999992 108.14000000000006 77.75999999999992 108.89000000000006 C 76.46171895550573 110.14160630542817 75.0526157746011 111.27290529627324 73.54999999999993 112.27000000000005 C 70.67999999999992 114.21000000000005 67.47999999999993 115.41000000000005 64.54999999999993 117.15000000000005 C 63.89999999999993 117.53000000000004 58.06999999999992 121.85000000000005 57.82999999999993 121.64000000000004 C 57.089999999999925 120.99000000000004 63.45999999999993 116.41000000000004 64.09999999999992 115.94000000000004 C 66.72684032012478 114.07605767511735 68.96240658357415 111.71478327831294 70.67999999999992 108.99000000000004 C 72.24726802741391 106.40479468034745 73.211191057815 103.49935292204626 73.49999999999991 100.49000000000002 C 73.68519538442715 98.79617213653967 73.46585475203717 97.08257344599296 72.85999999999991 95.49000000000004 C 72.48999999999991 94.56000000000003 71.42999999999991 91.92000000000004 70.49999999999991 93.49000000000004 C 70.23999999999991 93.93000000000004 70.49999999999991 95.49000000000004 70.49999999999991 96.06000000000003 C 70.41776048195322 97.13688338309929 70.24040231353499 98.20437877414493 69.96999999999991 99.25000000000003 C 69.28836411068768 101.91878629491873 68.09270560407661 104.42898980737779 66.44999999999992 106.64000000000003 C 64.17999999999992 109.73000000000003 61.14999999999992 111.78000000000003 58.249999999999915 114.20000000000003 Q 56 116.2 54 118.24 C 52.87 119.38 51.67 121.44 50.33 122.24 C 48.989999999999995 123.03999999999999 49.089999999999996 120.94 49.11 119.69 C 49.11 117.21 49.57 114.69 49.76 112.27 C 49.89 110.55 50.28 108.03 49.419999999999995 106.42 C 49.16 105.93 48.62 104.98 47.87 105.32000000000001 C 47.12 105.66000000000001 47.66 106.60000000000001 47.71 107.18 C 48.1 111.71000000000001 46.99 116.52000000000001 46.17 120.94000000000001 C 45.260000000000005 125.82000000000001 44.17 130.67000000000002 42.940000000000005 135.47 C 41.86000000000001 139.64 42.940000000000005 143.05 43.11000000000001 147.21 C 43.18144943120224 151.0957601367439 42.45656491495741 154.95500446266703 40.980000000000004 158.55 C 39.27 163.11 44.050000000000004 163.48000000000002 47.440000000000005 162.92000000000002 C 48.370000000000005 162.76000000000002 51.77 162.12 51.61000000000001 161.05 C 51.53000000000001 160.56 47.61000000000001 159.83 48.040000000000006 158.87 C 48.74614680762938 158.55768309996333 49.47914455365902 158.31000349628206 50.23 158.13 C 50.77 157.87 53.39 156.28 53.03 155.72 C 52.800000000000004 155.37 49.03 156.16 49.31 154.89 C 49.400000000000006 154.35999999999999 54.550000000000004 153.1 53.74 151.89 C 53.57 151.64 51.5 151.89 51.010000000000005 151.51 C 50.010000000000005 150.73 50.330000000000005 150.66 50.93000000000001 149.78 C 51.42000000000001 149.06 55.690000000000005 144.42 56.400000000000006 145.03 C 56.660000000000004 145.26 55.77 147.87 55.68000000000001 148.33 C 55.41824607198559 149.80586903705168 55.28109594240137 151.30113996203085 55.27 152.80000000000004 C 55.355865981056034 153.91716516719615 55.18483011370704 155.03916045700558 54.77000000000001 156.08 C 54.51000000000001 156.61 52.68000000000001 157.94000000000003 52.70000000000001 158.23000000000002 C 52.80000000000001 159.75000000000003 56.62000000000001 156.56000000000003 54.81000000000001 159.60000000000002 C 54.37000000000001 160.34000000000003 50.650000000000006 162.50000000000003 50.68000000000001 162.91000000000003 C 50.78000000000001 164.39000000000001 56.02000000000001 163.43000000000004 56.620000000000005 163.14000000000001 C 58.867504401820696 162.11801135426745 60.111637685257364 159.6795101187316 59.620000000000005 157.26000000000002 C 58.620000000000005 152.84000000000003 58.540000000000006 149.69000000000003 60.910000000000004 145.54000000000002 C 63.71 140.66000000000003 68.06 136.37000000000003 71.66 132.06000000000003 C 71.72999999999999 132.32000000000002 71.81 132.57000000000002 71.89999999999999 132.82000000000002 L 72 132.82000000000002 C 72.44206744469014 131.4083789362442 73.17823552120811 130.10645206018 74.16 129 C 74.34031949510614 129.7960077699188 74.56737954594499 130.58070059267067 74.84 131.35 L 75.06 131.35 C 75.45 130.23 76.43 128.12 75.84 126.97999999999999 L 75.93 126.86999999999999 L 76.93 126.55 C 77.24000000000001 127.66 77.5 128.77 77.93 129.85 L 78.15 129.85 C 78.47 128.93 79.37 127 79.15 125.97 L 80.37 125.72 C 80.69 126.72 80.87 127.72 81.21000000000001 128.66 L 81.43 128.66 C 81.80000000000001 127.59 82.04 126.49 82.36000000000001 125.41 C 82.82000000000001 125.35 83.28000000000002 125.28999999999999 83.73000000000002 125.25999999999999 C 84.04000000000002 126.25999999999999 84.22000000000001 127.19999999999999 84.56000000000002 128.14999999999998 L 84.78000000000002 128.14999999999998 C 85.12000000000002 127.14999999999998 85.29000000000002 126.14999999999998 85.62000000000002 125.14999999999998 Q 86.31000000000002 125.14999999999998 87.00000000000001 125.14999999999998 C 87.34000000000002 126.14999999999998 87.53000000000002 127.21999999999997 87.89000000000001 128.23999999999998 L 88 128.23999999999998 C 88.34 127.23999999999998 88.52 126.23999999999998 88.83 125.29999999999998 L 90 125.46999999999998 C 90.22839818282355 126.6738974875793 90.56304054492735 127.8551850258057 91 129 L 91.22 129 C 91.57 128 91.76 126.93 92.1 125.92 C 92.44161805358705 125.97589675818438 92.77667224634158 126.0663613902281 93.1 126.19 C 92.69 127.19 93.66 129.38 94 130.34 L 94.21 130.34 C 94.58999999999999 129.28 94.80999999999999 128.19 95.14 127.11 C 95.44015640978384 127.29844880291171 95.73053166882612 127.50204524890687 96.01 127.72 C 95.30000000000001 128.9 96.32000000000001 131.09 96.73 132.24 L 97 132.24 C 97.33 131.3 97.52 130.33 97.81 129.38 C 98.02 129.62 98.23 129.87 98.43 130.13 C 97.71000000000001 131.32 98.73 133.51 99.14 134.67 L 99.36 134.67 C 99.61347262468941 133.93538971548304 99.82711660650092 133.18763577914274 100 132.42999999999998 C 100.12 132.60999999999999 100.24 132.79 100.35 132.98999999999998 C 99.57 134.18999999999997 100.61 136.39999999999998 101.03 137.57999999999998 L 101.25 137.57999999999998 Q 101.58 136.57999999999998 101.82 135.63 L 102 135.97 C 101.27 137.16 102.29 139.35 102.7 140.51 L 102.92 140.51 C 103.12 139.94 103.28 139.37 103.43 138.79999999999998 L 103.57000000000001 139.07 C 103.00000000000001 140.20999999999998 103.99000000000001 142.37 104.37 143.44 L 104.59 143.44 C 104.75 142.98 104.9 142.51 105.02000000000001 142.05 L 105.13000000000001 142.27 C 104.75000000000001 143.27 105.72000000000001 145.44 106.05000000000001 146.37 L 106.26 146.37 C 106.39 146 106.5 145.64000000000001 106.61 145.28 C 106.61 145.35 106.67999999999999 145.43 106.72 145.51 C 106.59 146.57 107.37 148.32 107.72 149.29999999999998 L 107.92999999999999 149.29999999999998 C 108.03999999999999 149.01 108.11999999999999 148.70999999999998 108.21 148.42 C 108.69170367047666 149.66092758421323 109.08599962246741 150.93403570038674 109.39 152.23 L 109.61 152.23 C 109.7 151.97 109.77 151.70999999999998 109.85 151.45 C 110.35480326899604 152.65123852528302 110.75951277767267 153.89212470477915 111.05999999999999 155.15999999999997 L 111.27999999999999 155.16 C 111.36999999999999 154.9 111.44999999999999 154.63 111.52999999999999 154.35999999999999 C 112.04669085920197 155.56366182599078 112.45172578068187 156.8122405508833 112.73999999999998 158.08999999999997 L 112.94999999999997 158.08999999999997 C 113.05999999999997 157.77999999999997 113.15999999999997 157.45999999999998 113.24999999999997 157.08999999999997 L 113.39999999999998 157.29999999999998 C 113.55412165986775 158.56525147401055 113.89096211498368 159.801455944286 114.39999999999998 160.96999999999997 L 114.60999999999997 160.96999999999997 C 114.75999999999998 160.54999999999998 114.88999999999997 160.12999999999997 115.00999999999998 159.70999999999998 L 115.12999999999998 159.86999999999998 C 114.77999999999999 160.86999999999998 115.75999999999998 163.01999999999998 116.06999999999998 163.86999999999998 L 116.28999999999998 163.86999999999998 C 116.48999999999998 163.28999999999996 116.65999999999998 162.70999999999998 116.80999999999997 162.12999999999997 C 116.86999999999998 162.19999999999996 116.91999999999997 162.27999999999997 116.97999999999998 162.35999999999996 C 116.33999999999997 163.51999999999995 117.34999999999998 165.67999999999995 117.73999999999998 166.79999999999995 L 117.95999999999998 166.79999999999995 C 118.22349390202469 166.02867739415814 118.4471229151483 165.24430697499324 118.62999999999998 164.44999999999996 L 118.95999999999998 164.84999999999997 C 117.83999999999997 166.10999999999996 118.95999999999998 168.38999999999996 119.40999999999998 169.72999999999996 L 119.62999999999998 169.72999999999996 C 119.97999999999998 168.72999999999996 120.15999999999998 167.72999999999996 120.48999999999998 166.72999999999996 C 120.68999999999998 166.95999999999995 120.89999999999998 167.17999999999995 121.10999999999999 167.40999999999997 L 121.10999999999999 167.40999999999997 C 119.37999999999998 168.69999999999996 120.53999999999999 171.05999999999997 121.10999999999999 172.69999999999996 L 121.31999999999998 172.69999999999996 C 121.65999999999998 171.69999999999996 122.60999999999999 169.69999999999996 122.25999999999998 168.69999999999996 C 122.60999999999997 169.07999999999996 122.94999999999997 169.44999999999996 123.30999999999997 169.81999999999996 C 122.14999999999998 171.07999999999996 123.25999999999998 173.36999999999998 123.73999999999998 174.72999999999996 L 123.94999999999997 174.72999999999996 C 124.32999999999997 173.64999999999995 124.57999999999997 172.53999999999996 124.89999999999998 171.43999999999997 L 125.72999999999998 172.28999999999996 C 125.26999999999998 173.35999999999996 126.24999999999997 175.50999999999996 126.59999999999998 176.50999999999996 L 126.81999999999998 176.50999999999996 C 127.11063086204948 175.67851014963486 127.35106366628645 174.8303166457989 127.53999999999998 173.96999999999997 C 127.85999999999997 174.25999999999996 128.15999999999997 174.55999999999997 128.48 174.83999999999997 C 128.99506568440952 176.61660812815896 129.28401225889613 178.45108289175988 129.34 180.29999999999998 C 129.28 182.17 129.34 184.04 129.44 185.89999999999998 C 129.64842924067315 189.25982737532286 130.08948617537862 192.60116778975825 130.76 195.89999999999998 C 131.5556434105328 200.5047208954161 133.02825744549463 204.96637074047203 135.13 209.13999999999996 C 142.0460398569064 221.73297682636075 156.00383679887747 228.76554384155494 170.24 226.82999999999998 C 166.1328023406968 235.2075517509823 165.96787454363687 244.97860746124385 169.79000000000002 253.48999999999998 C 153.79000000000002 247.01 139.79000000000002 236.15999999999997 128.57000000000002 223.15999999999997 C 127.15700634270766 221.67830062226454 125.85986092381381 220.09030043160843 124.69000000000003 218.40999999999997 C 123.91053982953463 216.87367242423372 123.35490963740938 215.23372149353673 123.04000000000002 213.53999999999996 C 122.09000000000002 209.96999999999997 121.32000000000002 206.34999999999997 120.65000000000002 202.70999999999995 C 119.90000000000002 198.63999999999996 119.26000000000002 194.54999999999995 118.80000000000003 190.42999999999995 C 122.48000000000003 182.93999999999994 114.72000000000003 174.66999999999996 107.01000000000002 177.55999999999995 C 111.84546811136521 179.45874574678788 114.26942511788624 184.88040371183217 112.46000000000002 189.74999999999994 L 112.27000000000002 189.74999999999994 C 109.96000000000002 181.67999999999995 99.84000000000003 178.21999999999994 93.15000000000002 183.42999999999995 C 95.3730175140673 183.72230669727853 97.36754206761384 184.9443113053685 98.63754356668595 186.79210627924368 C 99.90754506575806 188.63990125311886 100.33369077481541 190.93986283791656 99.81000000000002 193.11999999999995 C 93.91000000000001 189.70999999999995 86.52000000000001 189.29999999999995 81.25000000000001 194.11999999999995 C 76.72000000000001 198.22999999999996 74.92000000000002 204.64999999999995 74.63000000000001 210.57999999999996 C 76.17000000000002 203.75999999999996 81.14000000000001 197.35999999999996 88.77000000000001 197.76999999999995 C 97.01 198.21999999999994 103.45000000000002 205.26999999999995 107.17000000000002 212.01999999999995 C 110.89000000000001 218.76999999999995 112.86000000000001 227.27999999999994 111.58000000000001 235.11999999999995 C 110.69000000000001 240.55999999999995 107.37000000000002 248.04999999999995 101.14000000000001 249.11999999999995 C 112.14000000000001 249.52999999999994 117.24000000000001 238.11999999999995 117.60000000000002 228.77999999999994 L 123.22000000000003 230.08999999999995 C 125.36000000000003 230.58999999999995 126.49000000000002 232.08999999999995 128.54000000000002 232.87999999999994 C 140.28 250 156.3 264.26 175.31 273 C 173.52657845002605 275.85924217903874 170.56011121161296 277.77332858009146 167.22 278.22 C 170.00694036935107 280.36717724861484 173.63146200179685 281.10192376175326 177.03456354578393 280.20956360990846 C 180.437665089771 279.31720345806366 183.23527633100846 276.89844740473 184.61 273.66 C 185.69000000000003 271.11 185.33 268.43 185.82000000000002 265.77000000000004 C 187.74 255.30000000000004 195.82000000000002 246.03000000000003 206.20000000000002 243.20000000000005 C 201.47784661120414 251.78993952281564 201.35405254561357 262.1698843558166 205.87 270.87000000000006 C 208.54753292141166 270.1892524681466 211.1208104913161 269.149850155597 213.52 267.7800000000001 C 213.79263147436737 268.62662583442807 214.12685747799944 269.4521640633993 214.52 270.2500000000001 C 214.32000000000002 272.8900000000001 214.52 275.8400000000001 213.91 278.4400000000001 C 213.35 280.8900000000001 212.21 283.3600000000001 211.4 285.7500000000001 C 211.14000000000001 286.5100000000001 209.33 290.3700000000001 209.99 290.8400000000001 C 210.65 291.31000000000006 212.83 290.1400000000001 213.36 289.93000000000006 C 212.20000000000002 291.4200000000001 211.76000000000002 293.33000000000004 210.78 294.93000000000006 C 209.71666834873662 296.5458753552171 208.10954926720646 297.72726752773264 206.25 298.26000000000005 C 203.56517367127822 299.35004836661443 200.79601719985857 300.2195902537752 197.97 300.86000000000007 C 192.24148691648645 302.0326261010785 186.39330669782544 302.5160577609449 180.55 302.30000000000007 C 173.1307045220797 301.98525774407307 165.76110314692318 300.9334146387098 158.55 299.1600000000001 C 156.44 298.68000000000006 153.75 298.3400000000001 151.87 297.37000000000006 C 148.58 295.6700000000001 145.54 291.45000000000005 143.51 288.45000000000005 C 146 278.93000000000006 135.57 270.74000000000007 126.85999999999999 275.04 C 131.4217882037977 277.2727391400139 134.05556399820716 282.162313744597 133.41 287.20000000000005 C 129.54 279.56000000000006 117.97 280.37000000000006 115.19999999999999 288.47 C 117.83237136676546 286.96216801477266 121.0068967520295 286.73080084231185 123.83007800125883 287.841018812911 C 126.65325925048816 288.9512367835101 128.81983374720784 291.2829951630045 129.72 294.18 C 125.61771623359755 295.82205658313 122.24005517977518 298.88040094068765 120.2 302.8 C 128.25 297.04 139.59 300.71000000000004 145.94 307.14 C 153.23 314.52 156.31 326.59 151.38 336.08 C 160.01999999999998 330.57 162.63 318.37 157.54999999999998 307.65 C 168.29 312.10999999999996 179.54999999999998 312.7 190.95 312.25 C 195.29999999999998 312.08 199.66 311.66 203.95 311.14 C 206.78 310.81 209.95 310.09 212.79999999999998 310.14 C 215.91 310.25 218.32 312.69 221.29999999999998 313.33 C 223.73999999999998 312.33 226.21999999999997 311.46999999999997 228.29999999999998 309.74 C 230.7 311.29 233.64 313.51 234.01 316.58 C 237.32999999999998 312.87 235.89999999999998 305.89 234.78 301.58 C 238.45866474064553 294.8482239574717 239.77876153198847 287.0790143081548 238.53 279.51 C 239.94903559537443 278.9362233037583 241.29238658363758 278.19066350527225 242.53 277.28999999999996 C 248.96184941317014 287.25099038956034 250.94454230011615 299.4443704109249 248 310.93 C 213.94 342.71000000000004 163.79000000000002 353.02 119.81 337.84000000000003 C 107.50257694078586 333.59875456686365 95.90288847598785 327.5309140447374 85.40000000000003 319.8400000000001 C 85.71000000000001 318.73 82.23 316.90000000000003 81.56 316.47 C 79.5047172682984 315.32073629793723 77.61987302024366 313.89027414539567 75.96000000000001 312.22 L 75.96000000000001 312.22 Q 72.26 308.93 68.81 305.38000000000005 C 69.48 304.83000000000004 71.22 303.49000000000007 71.08 302.50000000000006 C 70.96 301.7200000000001 69.41 300.9100000000001 68.84 300.50000000000006 C 66.42 298.7900000000001 63.63 297.50000000000006 61.67 295.21000000000004 C 61.35554431640992 295.56169105572485 61.02169105572483 295.89554431640994 60.67 296.21000000000004 C 55.0694025939946 289.23156411648256 50.19110114488639 281.7030315916569 46.11 273.74 C 48.17180862396424 275.2511242936307 50.4290492534907 276.4756184652367 52.82000000000001 277.38 C 54.18685933248119 279.9077771054142 54.60535854089781 282.84081816779167 54.00000000000001 285.65 C 57.35049345816389 284.6675262354706 60.11137628859255 282.2822985325639 61.57 279.10999999999996 C 65.2293352003359 279.2712603705982 68.88558153841969 278.7280854271503 72.33999999999999 277.50999999999993 C 73.16404792953809 279.5186009387307 73.4334336400959 281.7116769157078 73.12 283.85999999999996 C 77.84012003548185 282.09741529349697 80.97746875184546 277.5984253829755 81 272.56 C 82.32993226272167 271.4587861369116 83.55515159976194 270.2369143936884 84.66 268.91 C 87.91736557984734 269.7057368055802 90.69638292980294 271.82170307986195 92.33 274.75 C 95.48713123783175 269.68626275949026 94.49970207024907 263.07938691287484 90 259.16 C 90.19 258.55 90.35 257.92 90.51 257.29 C 94.01082323139343 255.97930114802958 97.92249430105869 256.3749049329579 101.09 258.36 C 101.42107893768184 252.14680881112366 96.99739881324425 246.69064865764256 90.85000000000001 245.73000000000002 C 90.63491481397243 244.49487802440103 90.33758661672783 243.27549833907207 89.96000000000001 242.07999999999998 C 92.96796832908585 239.52551024390084 97.0396171393949 238.61322162157262 100.85000000000001 239.64000000000001 C 100.00978725819296 236.32548281739278 97.81073783521369 233.5189867074035 94.79339735324146 231.9103730119672 C 91.77605687126925 230.30175931653093 88.22024083797237 230.04020412648651 85 231.19 C 86.59683283094003 227.92640760286906 89.5863208563354 225.5620277746658 93.13 224.76 C 90.80580749937806 222.1747177673239 87.48480345078576 220.7098781884111 84.00847804180164 220.73664857109853 C 80.53215263281751 220.76341895378596 77.23410189207802 222.27923035175854 74.94999999999999 224.89999999999998 C 73.84483910952854 224.37697597236652 72.70557330983985 223.92928794550937 71.53999999999999 223.55999999999997 C 72.54578034017453 221.02069206608493 74.39173660948457 218.9029602083679 76.77 217.55999999999997 C 73.89029639556973 215.80139716420257 70.40783435871748 215.32287153792717 67.16051861579274 216.23955973420576 C 63.913202872867984 217.15624793048434 61.1950258670694 219.38515851152323 59.65999999999999 222.39 C 57.36293812151078 222.65182375717262 55.106320189852255 223.19247180329916 52.94 224 C 52.09895863766032 221.60845278172306 52.02901060934691 219.01338093129564 52.739999999999995 216.58 C 46.62767761318325 217.94916227734893 42.56304480656377 223.7471139780492 43.35999999999999 229.96 C 42.44835997585374 230.81351407757904 41.593220326066735 231.72544034473472 40.799999999999976 232.69000000000003 C 40.775987037740414 231.4561428613089 40.93779903067445 230.22569749837302 41.27999999999999 229.04 C 37.933069023854415 229.766069927144 35.0511098619273 231.87756837995568 33.34999999999999 234.85 C 32.382469373387714 228.94459507220634 31.80787374721025 222.98149511449233 31.630000000000017 217 L 30.16 217 C 29.425041688623352 246.2727385277251 38.088527621573334 275.01083911437166 54.87999999999994 299 C 53.054900217578776 299.33670953844904 51.17694395623918 299.2511924045083 49.38999999999999 298.75 C 50.71813565202744 304.48685526840336 55.98048771698408 308.43678432437724 61.859999999999985 308.11 Q 65.28 312.17 69 316 C 67.231332476667 316.30493200150266 65.41678975830348 316.20924989959275 63.69 315.72 C 64.43015485301098 318.86151851934915 66.39276372191793 321.5780675705009 69.14280709284583 323.26751400997875 C 71.89285046377374 324.95696044945663 75.2031623932589 325.47974840755603 78.34 324.72 C 83.03426883557535 328.71105010272765 87.9885124267152 332.3858093409298 93.17000000000004 335.72 C 90.69258469201237 336.72370927737427 87.95097089669899 336.8715241418199 85.38 336.14000000000004 C 86.35092091292537 340.23925588665924 89.37916384801773 343.5412246333023 93.37930795218585 344.8623731447707 C 97.37945205635397 346.183521656239 101.77861743478664 345.33464189387945 105 342.62 Q 108.75 344.54 112.61 346.24 C 110.1349438763882 348.4013006379806 106.88188629991718 349.4531225877062 103.61 349.15000000000003 C 107.33 357.86 119.66 358.88000000000005 124.78 350.93 Q 129.95 352.64 135.26 353.93 C 133.41419368812635 357.6008964196223 129.8185425205296 360.0721991633535 125.72999999999999 360.48 C 128.5908988294579 364.632950558367 133.7244297701399 366.5804266095644 138.62 365.37 C 142.34 364.43 147.29 360.64 147.39000000000001 356.37 C 151.39000000000001 356.99 155.45000000000002 357.45 159.51000000000002 357.72 C 158.48861470804377 361.8162590877422 155.3898851714374 365.0744820563798 151.35000000000002 366.3 C 153.90910736182047 368.8338453549522 157.47090918146557 370.0843913585937 161.05233165387338 369.70648151978446 C 164.63375412628116 369.3285716809752 167.85610481504511 367.36216542888144 169.83 364.35 C 170.83 362.86 172.32000000000002 359.87 171.83 358.03000000000003 Q 178.43 357.89000000000004 185.01000000000002 357.16 C 184.69818097102072 361.16740587243794 182.40068622739653 364.75254881387764 178.89000000000001 366.71000000000004 C 187.27 372.02000000000004 198.34 365.04 197.26000000000002 355.23 Q 201.62000000000003 354.36 205.91000000000003 353.23 C 207.04939871803737 357.596228771006 205.64304885721782 362.2325469934881 202.27000000000004 365.23 C 211.83000000000004 368.66 221.15000000000003 359 217.56000000000003 349.61 C 220.74000000000004 348.45 223.88000000000002 347.19 226.97000000000003 345.8 C 227.85489534007095 349.4481239882209 226.98162252180194 353.30014519083966 224.61 356.21000000000004 C 228.85411015458527 356.94098237772903 233.16782550885875 355.36875852679157 235.9462280290438 352.0782744170239 C 238.72463054922886 348.7877903072562 239.55180458840476 344.27161813338324 238.12 340.21000000000004 Q 241.82 338.14000000000004 245.43 335.86 C 246.29404614216426 339.0934983334737 245.76841326077852 342.5409250244934 243.98000000000002 345.37 C 248.1365925921947 345.5789073958534 252.11007682096738 343.64227116039046 254.50639386678694 340.23954153647907 C 256.9027109126065 336.8368119125676 257.3872442476521 332.4431387030489 255.79000000000002 328.6 C 257.65000000000003 327.17 259.48 325.70000000000005 261.26000000000005 324.18 C 261.8121247393829 326.71481480474205 261.52792837600805 329.36029700208377 260.45000000000005 331.72 C 264.2534497823699 331.4102342851709 267.68940017242176 329.32869619829745 269.725142000057 326.1010127788294 C 271.7608838276923 322.8733293593613 272.15906196492534 318.8758288826844 270.80000000000007 315.31 Q 273.0400000000001 313.03000000000003 275.18000000000006 310.66 C 275.19351703193144 311.9171894677414 275.0113379605457 313.1688271618914 274.64000000000004 314.37 C 277.8370445969664 313.7105153567969 280.63289556825987 311.7892785684082 282.3946942223372 309.04117383021065 C 284.1564928764145 306.2930690920131 284.73526433909495 302.9504717419382 284 299.77 C 285.3 298.01 286.56 296.22999999999996 287.78 294.40999999999997 L 287.78 294.64 C 292.04394898417246 292.52548847752695 294.6705718151418 288.1060291985934 294.48999999999995 283.34999999999997 C 295.59999999999997 281.34999999999997 296.66999999999996 279.27 297.67999999999995 277.18999999999994 C 309.06999999999994 276.40999999999997 309.2099999999999 288.85999999999996 305.86999999999995 296.4599999999999 C 301.92999999999995 305.4599999999999 292.99999999999994 314.4599999999999 282.98999999999995 316.0199999999999 C 288.55999999999995 317.61999999999995 292.15999999999997 322.2199999999999 291.34 328.13999999999993 C 290.71 332.74999999999994 287.92999999999995 336.8999999999999 284.81 340.2299999999999 C 277.11 348.4199999999999 264.23 354.6599999999999 252.81 352.6099999999999 C 253.4469647858788 354.46108878233906 253.51315867226575 356.4608409289765 253 358.3499999999999 C 231.13366111629597 364.31279849941114 208.7780028472492 368.3087050822317 186.2 370.28999999999985 L 186.2 370.6899999999999 C 197.30830567271025 370.6337974688878 208.40509493420348 369.96612061801574 219.44000000000017 368.6899999999999 C 229.77 367.52999999999986 240.36 366.2499999999999 250.35 363.2599999999999 C 249.22053529646308 364.60586874145207 247.92716257978074 365.80517798783023 246.5 366.82999999999987 C 291.02275363316215 356.270933626465 324.1928806504899 319.00116632374835 329.51565330374 273.554080993204 C 334.8384259569901 228.10699566265967 311.17793949051054 184.18121437975196 270.3 163.61999999999986 C 273.7122912257201 176.18428179197508 266.95136888532693 189.27189896213886 254.73000000000002 193.75999999999988 C 254.06000000000003 191.53999999999988 253.58 188.85999999999987 254.78000000000003 186.75999999999988 C 250.90000000000003 187.57999999999987 248.33000000000004 192.0299999999999 246.69000000000003 195.2499999999999 C 244.87999018403463 195.2801421727112 243.07223432509824 195.1090929170419 241.30000000000004 194.7399999999999 C 241.72000000000003 192.7399999999999 242.51000000000005 190.46999999999989 244.30000000000004 189.2399999999999 C 240.95000000000005 188.37999999999988 237.30000000000004 190.5399999999999 234.61000000000004 192.3299999999999 C 232.8579152632091 191.40119639746808 231.2230080499775 190.26649693530734 229.74000000000004 188.9499999999999 C 231.09000000000003 186.7099999999999 232.95000000000005 184.1099999999999 235.74000000000004 183.5899999999999 C 232.74000000000004 181.25999999999988 228.08000000000004 181.97999999999988 224.69000000000003 182.68999999999988 C 224.1735445085078 181.82179550329332 223.7093853690361 180.92353069381215 223.3 180 C 219.66000000000003 177.31 222.20000000000002 174.26 225.3 172.77 C 229.18 170.9 233.73000000000002 170.31 237.97 170.10000000000002 C 236.18 163.96000000000004 238.03 157.32000000000002 244.14 154.56000000000003 C 249.92 151.96000000000004 256.91999999999996 153.22000000000003 262.55 155.56000000000003 C 265.13 146.56000000000003 274.01 144.41000000000003 281.75 148.24000000000004 C 290.75 152.67000000000004 296.96 162.31000000000003 299.07 171.86000000000004 C 304.87 162.08000000000004 315.74 164.00000000000003 322.07 171.94000000000005 C 329.21 180.87000000000006 331.54 194.94000000000005 327.07 205.49000000000007 C 336.46 204.22000000000006 342.96 215.41000000000005 345.71999999999997 222.71000000000006 C 349.65 233.13000000000005 351.10999999999996 247.43000000000006 344.78999999999996 257.2700000000001 C 347.4500077399165 259.7781713748938 348.9554460185317 263.273972762255 348.95 266.9300000000001 C 348.74 270.9300000000001 346.46 275.2400000000001 344.95 278.8300000000001 C 341.6220762017748 287.16005202767957 337.45740814455615 295.13088493847846 332.52 302.6200000000001 L 332.83 302.8800000000001 C 340.05 295.0700000000001 344.65 285.8800000000001 349.7 276.6800000000001 C 354.4303308321366 268.0731646044473 357.9757517871414 258.8665069632252 360.24 249.31000000000012 C 367.97710187871206 216.68755192321493 360.3554575445673 182.31822046771885 339.55328831014043 156.02455927064742 C 318.7511190757136 129.730898073576 287.0573961784746 114.40613589052788 253.52999999999997 114.43 Z M 103.29 66.56 C 102.83000000000001 67.03 101.82000000000001 68.56 101.12 68.56 C 99.39 68.8 100.79 66.69 101.12 66.05 C 101.45 65.41 102.12 63.32 102.79 63.14 C 104.39 62.77 104 65.93 103.29 66.56 Z M 48.59 140.11 C 48.42 140.75 48.28 142.54000000000002 47.720000000000006 142.97000000000003 C 46.34 144.04000000000002 46.510000000000005 141.51000000000002 46.480000000000004 140.79000000000002 C 46.45 140.07000000000002 45.99 137.92000000000002 46.480000000000004 137.44000000000003 C 47.67 136.27 48.88 139.22 48.59 140.11 Z M 151.7 143.71 C 151.60999999999999 143.9 151.53 144.1 151.44 144.29000000000002 C 150.72394201654876 143.85838709215622 149.92798473981904 143.57606036579483 149.1 143.46 C 149.1 142.99 149.1 142.52 149.1 142.05 L 150.82 142.77 L 150.09 143 L 150.09 143.22 C 150.63 143.41 151.17 143.57 151.7 143.71 Z M 139.33999999999997 166.71 L 139.45999999999998 167.16 L 139.07999999999998 166.84 Z M 233.79 64.89 C 232.63 64.05 231.5 63.15 230.29 62.38 C 229.82999999999998 60.7 229.29 59.03 228.67 57.38 C 231 59.16 232.72 62.22 233.79 64.89 Z M 203.38 38.07 C 203.0420473232211 39.230913124091565 202.10640838332608 40.12072485060398 200.93 40.4 C 200.31 40.61 197.87 41.559999999999995 198.09 40.11 C 198.20000000000002 39.41 200.09 38.63 200.59 38.32 C 200.79 38.19 204.35 36 203.38 38.07 Z M 154.13 137.13 L 153.66 137.28 L 153.66 137.49 C 154 137.61 154.34 137.71 154.66 137.82000000000002 C 154.34 138.41000000000003 154.02 138.98000000000002 153.71 139.58 L 153.3 139.69000000000003 C 152.56006754506757 137.96259679846665 151.0664017200097 136.6717744805154 149.25 136.19000000000003 C 149.25 135.71000000000004 149.34 135.25000000000003 149.38 134.77000000000004 Z M 138 160.75 C 138.08 161.16 138.18 161.57 138.26 161.98 L 138.26 162.07 C 137.0223605459812 161.9798341194837 135.78604060720141 162.2619240210081 134.70999999999998 162.88 C 134.51999999999998 162.7 134.33999999999997 162.51 134.15999999999997 162.32 Z M 44.8 234.18 C 45.26 235.02 47.26 238.18 48.449999999999996 238.18 C 49.29 238.18 49.97 237.06 50.449999999999996 236.47 C 52.38999999999999 233.93 53.73 230.89 56.199999999999996 228.81 C 55.76276570644677 228.40640204793328 55.35505231260235 227.97195334957445 54.98 227.51 C 56.11010945931475 227.12691687206942 57.26646370862494 226.82613108467658 58.439999999999976 226.60999999999999 C 58.349999999999994 227.48 58.07 229.72 58.89 230.30999999999997 C 59.53 230.77999999999997 61.19 230.24999999999997 61.89 230.11999999999998 C 64.8 229.59999999999997 67.69 228.52999999999997 70.69 228.73 C 70.69 228.31 70.69 227.89999999999998 70.69 227.48 C 71.44 227.73999999999998 72.17999999999999 228.03 72.89999999999999 228.35 C 72.24 230.03 71.44 231.60999999999999 73.41999999999999 232.22 C 75.39999999999998 232.83 77.62999999999998 232.69 79.61999999999999 232.84 C 79.99 233.19 80.35999999999999 233.56 80.71 233.93 C 79.36999999999999 235.27 78.71 235.81 80.13 237.15 C 81.68750175726521 238.3984333764013 83.36194235268943 239.49351752580873 85.13 240.42000000000002 C 85.92966540295879 242.13742885197914 86.52377717503524 243.94326011399684 86.89999999999999 245.8 C 84.89999999999999 246.18 80.63999999999999 247.26000000000002 81.97 249.8 C 83.13 252 85.34 253.8 86.86 255.74 C 86.77 256.19 86.66 256.63 86.54 257.07 C 84.43 256.27 79.60000000000001 254.9 79.77000000000001 258.24 C 79.92000000000002 261.13 81.11000000000001 263.90000000000003 81.31000000000002 266.8 C 80.95000000000002 267.2 80.58000000000001 267.6 80.20000000000002 267.99 C 79.37000000000002 265.99 75.60000000000002 259.99 73.36000000000001 262.82 C 71.12 265.65 70.59000000000002 269.46 68.14000000000001 272.19 C 68.871007035268 272.71818681162426 69.54170578895422 273.32516918371033 70.14 274 C 67.70271466245153 274.75809710794385 65.1623639211859 275.1325711215965 62.60999999999999 275.11 C 62.795926756375785 272.9020350469003 62.37401932584675 270.68529190780924 61.39 268.7 C 60.74 267.4 58.47 263.78 56.74 263.7 C 54.74 263.7 52.14 270.56 51.050000000000004 272.03999999999996 C 42.94087362553538 267.521117128604 38.05026574638778 258.83700455962787 38.38999999999999 249.55999999999997 C 40.63 246.89 41.99 243.48999999999998 44.69 241.20999999999998 C 43.60514459156798 240.21150673067234 42.71358897392778 239.02163592538068 42.059999999999995 237.7 C 42.854301269687554 236.4439834085668 43.76497844398064 235.26546000654045 44.78 234.18 Z" stroke-linecap="round" />
</g>
		<g transform="matrix(1 0 0 1 122.88 -102.01)"  >
<path style="stroke: none; stroke-width: 1; stroke-dasharray: none; stroke-linecap: butt; stroke-dashoffset: 0; stroke-linejoin: miter; stroke-miterlimit: 4; fill: rgb(0,0,0); fill-rule: nonzero; opacity: 1;" vector-effect="non-scaling-stroke"  transform=" translate(-306.15, -119.61)" d="M 361.51 163.72 L 358.89 134.86 L 352.36 136.46 L 347 113.66 L 343.42 118.6 L 330.85 90.6 L 328.07000000000005 96.17999999999999 L 313 72.46 L 313 79.46 L 299.7 62.83 L 300 68.4 L 284.28 54.49 L 281.44 55.67 L 267.09 42.06 L 265.19 47.06 L 256.74 39 L 258.74 44.28 L 250.31 47.67 L 263.27 49 L 256.74 52.4 L 263.41 53.74 C 259.150920900485 54.27712302317246 255.76167384236356 57.56848568972362 255.10000000000002 61.81 C 255.8211161972164 61.5582623785821 256.56977630231495 61.39375858867256 257.33000000000004 61.32 C 256.6588371557148 61.97125910369355 256.027684498836 62.662521537417994 255.44000000000005 63.38999999999999 C 250.63320149037872 63.32037710426193 246.50514214832714 66.79237747967167 245.75000000000006 71.54 C 247.52459453013128 70.9010671587643 249.44831020181041 70.80018514343213 251.28000000000006 71.25 C 250.70551208253235 73.10656032694254 250.36948267352 75.02864854649319 250.28000000000006 76.97000000000001 C 248.11186656237282 78.41048768236121 246.6152528142583 80.66348122273614 246.12793348933263 83.22049652224955 C 245.64061416440697 85.77751182176296 246.20366155522498 88.42303827971223 247.69000000000005 90.56 C 248.59557361248537 88.73549361649754 250.05524337242454 87.24432019267476 251.86000000000004 86.3 C 252.2302197362655 87.24842579784276 252.66455659712148 88.17055636396776 253.16000000000005 89.06 C 251.31654654273086 91.03201128522967 250.3823396696607 93.68541809896244 250.58371352822385 96.37736864220768 C 250.785087386787 99.06931918545291 252.10366893880027 101.5542040704215 254.22000000000006 103.23 C 254.6973186781945 100.35984506432001 256.4570359186256 97.86384445969179 259 96.45 C 258.2330730753574 99.07192611189075 258.6121394046371 101.89598659896228 260.0433315332816 104.22286488002088 C 261.4745236619262 106.54974316107946 263.824012966287 108.16185634734352 266.51 108.66 C 265.5563595020537 105.81616094401465 265.9972323443764 102.6892980959441 267.7 100.22 C 268.7696175995924 100.50574363573845 269.8594315407985 100.7096658762709 270.96 100.83 C 272.1943984340398 105.46619601321336 276.6443653748731 108.49387686960806 281.40999999999997 107.94 C 279.775631686013 105.65004627899856 279.2341324411564 102.75595234196088 279.92999999999995 100.03 C 280.5799999999999 99.84 281.2099999999999 99.63 281.8299999999999 99.38 C 285.1899537448952 102.51429887191676 290.29388334514374 102.84479923127712 294.0299999999999 100.17 C 291.75940546427563 99.08086800782043 290.0096132175538 97.1406466254184 289.1599999999999 94.77 C 290.3107634686349 93.69458152222565 291.3494180746911 92.50515447335486 292.25999999999993 91.22 C 296.0545919290303 90.75591088250701 299.21853782231295 88.09772585692382 300.3299999999999 84.44 C 298.76983804498946 84.75674915843267 297.1556961703985 84.68462792573818 295.62999999999994 84.23 C 296.4622577691547 81.30703309530175 296.7069719939193 78.2481052857442 296.34999999999997 75.23000000000002 C 297.144082769671 74.7650926226636 297.865188493607 74.18551232118236 298.48999999999995 73.51 L 312.18999999999994 82.15 L 308.48999999999995 82.15 L 324.48999999999995 96.72 L 320.23999999999995 96.72 L 342.34 121.41 L 335.96 122.52 L 350.84 138.46 L 344.89 137.81 L 358.47999999999996 164.48000000000002 L 353.80999999999995 162.01000000000002 L 366.55999999999995 200.22000000000003 L 366.55999999999995 160.64 Z M 294.19 67.84 L 297.99 69.49000000000001 C 296.82646203716087 69.46806972069143 295.67706012523274 69.23073009285966 294.6 68.79 C 294.47 68.48 294.34 68.15 294.19 67.84 Z M 270 55 L 269.65 55 L 269.35999999999996 54.83 Z M 292.44 76.7 C 292.55326508207804 78.55638318815156 292.3949290294898 80.4193584452005 291.96999999999997 82.22999999999999 C 291.52514272465754 81.85973093484152 291.1166253007389 81.44786500744813 290.75 81 C 288.83 83 285.14 83.54 283.52 85.63 C 282.69 86.71 282.69 86.63 283.79999999999995 87.96 C 284.82391210159 89.14677400023538 286.1212322755617 90.06656713945343 287.5799999999999 90.64 C 287.24999999999994 91.01 286.9099999999999 91.36 286.5799999999999 91.7 C 284.48999999999995 91.59 282.36999999999995 90.86 280.2699999999999 90.94 C 277.73999999999995 91.03 278.7699999999999 94.24 279.4699999999999 95.94 C 279.0399999999999 96.09 278.5999999999999 96.23 278.1599999999999 96.34 C 276.8299999999999 95.34 275.0799999999999 93.34 273.4699999999999 92.96000000000001 C 271.6199999999999 92.50000000000001 271.0499999999999 95.17 270.7799999999999 96.77000000000001 C 269.09460980761713 96.53008377430872 267.44958960168486 96.06248089368584 265.88999999999993 95.38000000000001 C 264.6499999999999 93.64000000000001 263.3299999999999 90.38000000000001 261.25999999999993 92.55000000000001 C 260.80999999999995 92.18 260.36999999999995 91.78000000000002 259.9599999999999 91.37 C 259.7999999999999 90.15 259.9599999999999 87.93 259.18999999999994 86.91000000000001 C 258.41999999999996 85.89000000000001 257.81999999999994 86.21000000000001 256.5199999999999 86.74000000000001 C 256.25999999999993 86.23 256.00999999999993 85.74000000000001 255.78999999999994 85.18 C 255.97999999999993 85.18 256.1599999999999 85.18 256.3399999999999 85.18 C 256.0299999999999 82.80000000000001 256.74999999999994 80.45 257.0199999999999 78.11000000000001 C 257.2899999999999 75.77000000000002 257.0899999999999 75.18 254.4699999999999 75.48000000000002 C 254.5740225287201 74.65006271656962 254.73439287736966 73.82816467974065 254.9499999999999 73.02000000000002 C 255.20799028328753 73.21276248532881 255.45503983822928 73.41974995028 255.6899999999999 73.64000000000003 C 257.25999999999993 71.53000000000003 259.68999999999994 70.37000000000003 261.5899999999999 68.64000000000003 C 262.0199999999999 68.24000000000002 262.7999999999999 67.73000000000003 262.7699999999999 67.08000000000003 C 262.7699999999999 66.24000000000002 260.37999999999994 64.85000000000002 259.7699999999999 64.54000000000002 C 260.6072305436902 63.68102744564785 261.5247466393744 62.904152503316666 262.50999999999993 62.22000000000003 C 263.42537548508733 62.64168619704792 264.2662943557815 63.20905314594999 265 63.89999999999999 C 266.53 61.9 268.87 60.589999999999996 270.8 58.96 C 274.32 58.49 277.39 60.57 280.57 61.96 C 284.21999999999997 63.54 287.34 64.24 289.57 67.71000000000001 C 288.39 68.62 283.57 70.71000000000001 283.57 72.38000000000001 C 283.57 73.52000000000001 286.31 75.16000000000001 287.2 75.61000000000001 C 288.83678415547087 76.43714618297872 290.6743474626579 76.78385624093853 292.5 76.61000000000001 C 292.5 76.61000000000001 292.44 76.65 292.44 76.7 Z" stroke-linecap="round" />
</g>
</g>
</g>
</svg>